# xmcd
#
# Track frame offsets:
#	150
#	16255
#	32670
#	50682
#	64997
#	88827
#	103652
#	119195
#	132372
#	148190
#
# Disc length: 2151 seconds
#
# Revision: 0
# Processed by: cddbd v1.4PL0 Copyright (c) Steve Scherf et al.
# Submitted via: dBpowerAMP V4.0
#
DISCID=9808650a
DTITLE=Willie Nelson - Partners
DYEAR=1986
DGENRE=Country
TTITLE0=Partners After All
TTITLE1=When I Dream
TTITLE2=Hello Love, Goodbye
TTITLE3=Heart Of Gold
TTITLE4=Kathleen
TTITLE5=something
TTITLE6=So Much Like My Dad
TTITLE7=My Own Peculiar Way
TTITLE8=Remember Me
TTITLE9=Home Away From Home
EXTD=
EXTT0=
EXTT1=
EXTT2=
EXTT3=
EXTT4=
EXTT5=
EXTT6=
EXTT7=
EXTT8=
EXTT9=
PLAYORDER=
